<svg xmlns="http://www.w3.org/2000/svg" viewBox="0 0 1953.46 220.42"><defs><style>.cls-1{fill:#ff490d;}.cls-2{fill:#fff;}</style></defs><title>cc-horizontal-white</title><g id="Capa_2" data-name="Capa 2"><g id="Capa_1-2" data-name="Capa 1"><path class="cls-1" d="M228.56,212.73l-18.8-39.68a18.21,18.21,0,0,1,.05-15.63,110,110,0,0,0,10.12-57.55c-5-54-49.73-97-103.89-99.72A110.23,110.23,0,0,0,.65,122.21C6.51,177,53.32,219.58,108.43,220.4a109.8,109.8,0,0,0,57.35-15,21,21,0,0,1,18.49-1.14l37.8,15.35A5.07,5.07,0,0,0,228.56,212.73Z"/><path class="cls-2" d="M398,141.91l23.17,8.54c-5.85,29.51-28.29,46.34-57.31,46.34-37.56,0-62.19-24.39-62.19-61,0-34.88,26.58-59.51,58.53-59.51,28.53,0,50,16.09,54.87,42.43l-23.17,7.32c-2.68-17.31-14.87-27.8-31.7-27.8s-34.14,13.17-34.14,37.56c0,23.65,18,39,36.58,39C384.12,174.84,395.34,161.18,398,141.91Z"/><path class="cls-2" d="M496.3,76.31c34.88,0,59.51,26.09,59.51,60.24s-24.63,60.24-59.51,60.24-59.51-26.1-59.51-60.24S461.42,76.31,496.3,76.31Zm0,23.17c-19.51,0-33.9,15.36-33.9,37.07s14.39,37.07,33.9,37.07,33.9-15.37,33.9-37.07S515.81,99.48,496.3,99.48Z"/><path class="cls-2" d="M632.87,76.31c34.88,0,59.51,26.09,59.51,60.24s-24.63,60.24-59.51,60.24-59.51-26.1-59.51-60.24S598,76.31,632.87,76.31Zm0,23.17c-19.51,0-33.9,15.36-33.9,37.07s14.39,37.07,33.9,37.07,33.9-15.37,33.9-37.07S652.38,99.48,632.87,99.48Z"/><path class="cls-2" d="M821.64,194.35H791.15L756.76,144.6l-14.39,15.12v34.63H716.76V23.63h25.61V127.28l43.9-48.53H819.2l-44.88,47.31Z"/><path class="cls-2" d="M990.64,141.91l23.17,8.54c-5.86,29.51-28.29,46.34-57.32,46.34-37.55,0-62.19-24.39-62.19-61,0-34.88,26.58-59.51,58.54-59.51,28.53,0,50,16.09,54.87,42.43l-23.17,7.32c-2.68-17.31-14.88-27.8-31.7-27.8s-34.15,13.17-34.15,37.56c0,23.65,18,39,36.58,39C976.74,174.84,988,161.18,990.64,141.91Z"/><path class="cls-2" d="M1088.92,76.31c34.87,0,59.51,26.09,59.51,60.24s-24.64,60.24-59.51,60.24-59.51-26.1-59.51-60.24S1054,76.31,1088.92,76.31Zm0,23.17c-19.51,0-33.9,15.36-33.9,37.07s14.39,37.07,33.9,37.07,33.9-15.37,33.9-37.07S1108.43,99.48,1088.92,99.48Z"/><path class="cls-2" d="M1172.81,23.63h25.61V194.35h-25.61Z"/><path class="cls-2" d="M1229.63,23.63h25.61V194.35h-25.61Z"/><path class="cls-2" d="M1393,159c-8,24.14-26.1,37.8-53.41,37.8-35.61,0-60-23.66-60-61,0-33.17,22.44-59.51,56.34-59.51,30.24,0,52.19,19.51,52.19,51a80.85,80.85,0,0,1-1.22,13.41h-81.7q0,16.83,10.24,25.61a38.09,38.09,0,0,0,24.39,8.54c16.58,0,27.56-8.54,31.22-24.39Zm-30.49-35.37.25-2.19c0-14.39-11.47-23.17-27.08-23.17-15.85,0-28.29,9.75-30.48,25.36Z"/><path class="cls-2" d="M1505.46,141.91l23.17,8.54c-5.86,29.51-28.3,46.34-57.32,46.34-37.56,0-62.19-24.39-62.19-61,0-34.88,26.58-59.51,58.53-59.51,28.54,0,50,16.09,54.88,42.43l-23.17,7.32c-2.68-17.31-14.88-27.8-31.71-27.8s-34.14,13.17-34.14,37.56c0,23.65,18,39,36.58,39C1491.55,174.84,1502.77,161.18,1505.46,141.91Z"/><path class="cls-2" d="M1561.3,100.7h-23.17v-22h23.17V41.92h25.61V78.75h43.9v22h-43.9V159c0,10.48,6.58,15.85,14.63,15.85,9.76,0,14.88-6.1,15.85-19.51l24.39,4.88c-2.19,23.16-16.83,36.58-39,36.58-27.32,0-41.46-14.88-41.46-39Z"/><path class="cls-2" d="M1662.51,30.94h28V59h-28Zm26.82,47.81v115.6h-25.6V78.75Z"/><path class="cls-2" d="M1770.06,168.74l33.89-90h26.83l-46.09,115.6h-29.27l-46.09-115.6h26.83Z"/><path class="cls-2" d="M1953.46,159c-8,24.14-26.1,37.8-53.42,37.8-35.6,0-60-23.66-60-61,0-33.17,22.44-59.51,56.34-59.51,30.24,0,52.19,19.51,52.19,51a80.85,80.85,0,0,1-1.22,13.41h-81.7q0,16.83,10.24,25.61a38.09,38.09,0,0,0,24.39,8.54c16.58,0,27.56-8.54,31.21-24.39ZM1923,123.62l.25-2.19c0-14.39-11.47-23.17-27.08-23.17-15.85,0-28.29,9.75-30.48,25.36Z"/></g></g></svg>