<svg xmlns="http://www.w3.org/2000/svg" viewBox="0 0 269.44 61.15"><defs><style>.cls-1{fill:#ff490d;}</style></defs><title>dulcinea</title><g id="Capa_2" data-name="Capa 2"><g id="Capa_1-2" data-name="Capa 1"><path class="cls-1" d="M64.56,61.08a17.67,17.67,0,0,1-9.29-2.28,14.06,14.06,0,0,1-5.57-6.1,19.15,19.15,0,0,1-1.77-8.25V22.06a4.14,4.14,0,0,1,1.2-3.1A4,4,0,0,1,52,17.8,4.15,4.15,0,0,1,55,18.93a4.1,4.1,0,0,1,1.24,3.13V44.31a10.26,10.26,0,0,0,2.15,6.87c1.41,1.67,3.49,2.47,6.37,2.47,5.88,0,8.74-3,8.74-9.34V22.06A4.11,4.11,0,0,1,74.66,19a4,4,0,0,1,2.88-1.16,4.15,4.15,0,0,1,2.93,1.13,4.1,4.1,0,0,1,1.24,3.13V44.45A19.19,19.19,0,0,1,80,52.59a14.19,14.19,0,0,1-5.68,6.16A18.7,18.7,0,0,1,64.56,61.08ZM52,19.42a2.44,2.44,0,0,0-1.76.7,2.56,2.56,0,0,0-.71,1.94V44.45A17.5,17.5,0,0,0,51.17,52a12.55,12.55,0,0,0,4.94,5.41,16.14,16.14,0,0,0,8.45,2,17.1,17.1,0,0,0,8.89-2.1,12.53,12.53,0,0,0,5-5.46,17.55,17.55,0,0,0,1.6-7.45V22.06a2.54,2.54,0,0,0-.72-1.95,2.59,2.59,0,0,0-1.83-.69,2.44,2.44,0,0,0-1.76.7,2.56,2.56,0,0,0-.71,1.94V44.31c0,7.17-3.58,11-10.36,11-3.33,0-5.89-1-7.61-3a11.9,11.9,0,0,1-2.53-7.93V22.06a2.54,2.54,0,0,0-.72-1.95A2.6,2.6,0,0,0,52,19.42Z"/><path class="cls-1" d="M18.7,60.29H4.32A4,4,0,0,1,1,59,3.94,3.94,0,0,1,0,56.5V8.59C0,5.76,1.53,4.2,4.32,4.2H18.09A23.14,23.14,0,0,1,31.28,8a24,24,0,0,1,8.49,10.17,33.43,33.43,0,0,1,2.89,13.93A37.64,37.64,0,0,1,39.82,46.6a22.66,22.66,0,0,1-8.19,10.07A22.82,22.82,0,0,1,18.7,60.29ZM4.32,5.82c-1.89,0-2.7.83-2.7,2.77V56.5a2.38,2.38,0,0,0,.67,1.43,2.44,2.44,0,0,0,2,.74H18.7a21.22,21.22,0,0,0,12-3.35A21,21,0,0,0,38.33,46,36,36,0,0,0,41,32.05,31.83,31.83,0,0,0,38.3,18.8a22.42,22.42,0,0,0-7.92-9.49A21.58,21.58,0,0,0,18.09,5.82Z"/><path class="cls-1" d="M17.94,54.73H7.45a.81.81,0,0,1-.81-.81V11.05a.81.81,0,0,1,.81-.81H17a18.83,18.83,0,0,1,7.57,1.49A16.26,16.26,0,0,1,30.46,16a19.6,19.6,0,0,1,3.73,6.82,29,29,0,0,1,1.29,9,31.6,31.6,0,0,1-1.8,11.46A18.22,18.22,0,0,1,29,50.41a16.43,16.43,0,0,1-5.72,3.41A17.63,17.63,0,0,1,17.94,54.73ZM8.26,53.11h9.68a16,16,0,0,0,4.88-.84A14.55,14.55,0,0,0,28,49.19a16.51,16.51,0,0,0,4.21-6.5,30.09,30.09,0,0,0,1.69-10.86,27.67,27.67,0,0,0-1.21-8.47,18,18,0,0,0-3.41-6.26,14.83,14.83,0,0,0-5.31-3.89A17.45,17.45,0,0,0,17,11.86H8.26Z"/><path class="cls-1" d="M142.26,13.93a4.8,4.8,0,0,1-3.53-1.52,4.9,4.9,0,0,1,0-7,4.81,4.81,0,0,1,3.55-1.51,4.72,4.72,0,0,1,3.48,1.49,5,5,0,0,1,0,7A4.7,4.7,0,0,1,142.26,13.93Zm0-8.41a3.18,3.18,0,0,0-2.39,1,3.29,3.29,0,0,0,0,4.74,3.21,3.21,0,0,0,2.37,1,3.09,3.09,0,0,0,2.31-1,3.31,3.31,0,0,0,1-2.38,3.25,3.25,0,0,0-1-2.38A3.1,3.1,0,0,0,142.26,5.52Z"/><path class="cls-1" d="M142.26,60.93a4,4,0,0,1-2.86-1.16,4.09,4.09,0,0,1-1.23-3.1V22.06a4.36,4.36,0,0,1,1.19-3.21,4,4,0,0,1,2.9-1.2,4.15,4.15,0,0,1,2.93,1.13,4.1,4.1,0,0,1,1.24,3.13V56.67a4.07,4.07,0,0,1-1.25,3.13A4.16,4.16,0,0,1,142.26,60.93Zm0-41.66a2.39,2.39,0,0,0-1.75.72,2.78,2.78,0,0,0-.72,2.07V56.67a2.52,2.52,0,0,0,.72,1.93,2.49,2.49,0,0,0,1.75.71,2.58,2.58,0,0,0,1.82-.7,2.5,2.5,0,0,0,.73-1.94V21.91a2.48,2.48,0,0,0-.73-1.94A2.53,2.53,0,0,0,142.26,19.27Z"/><path class="cls-1" d="M92.9,61A4,4,0,0,1,90,59.81a4.33,4.33,0,0,1-1.22-3.22V4.32A4.2,4.2,0,0,1,90,1.14,4.06,4.06,0,0,1,92.9,0a4.26,4.26,0,0,1,2.92,1.08,4,4,0,0,1,1.24,3.09V56.59a4.28,4.28,0,0,1-1.24,3.25A4.1,4.1,0,0,1,92.9,61Zm0-59.38a2.48,2.48,0,0,0-1.77.69,2.62,2.62,0,0,0-.71,2V56.59a2.71,2.71,0,0,0,.74,2.06,2.39,2.39,0,0,0,1.74.73,2.49,2.49,0,0,0,1.81-.72,2.72,2.72,0,0,0,.73-2.07V4.17a2.36,2.36,0,0,0-.71-1.88A2.62,2.62,0,0,0,92.9,1.62Z"/><path class="cls-1" d="M121.61,60.93a18.26,18.26,0,0,1-10.09-2.81,18.51,18.51,0,0,1-6.65-7.55,24.32,24.32,0,0,1-2.39-10.31,31.89,31.89,0,0,1,1.08-8.39,21.81,21.81,0,0,1,3.36-7.15,16.59,16.59,0,0,1,6-5.07,19.29,19.29,0,0,1,8.43-2h0a20.7,20.7,0,0,1,7.4,1.18c2.17.82,3.55,1.79,4.24,3A.77.77,0,0,1,133,22a5.73,5.73,0,0,1,.34,1.7,3.31,3.31,0,0,1-1.08,2.52,4.27,4.27,0,0,1-2.65,1.1.77.77,0,0,1-.3,0c-.25-.08-1-.32-2.32-.78s-2.3-.74-3.1-.95a9.46,9.46,0,0,0-2.29-.29,8.76,8.76,0,0,0-5.72,1.89,12.36,12.36,0,0,0-3.65,5,20,20,0,0,0-1.43,6.67,21.44,21.44,0,0,0,2.29,9.79c1.45,2.88,3.88,4.47,7.42,4.88a4,4,0,0,1,1.19.14,12.78,12.78,0,0,0,1.56-.23A9.08,9.08,0,0,0,124.7,53c.38-.14.89-.35,1.52-.63l1.48-.65c1.9-.92,3.38-.63,4.43.53a3.76,3.76,0,0,1,.92,2.58c0,1.62-.7,3.78-4,4.89A23.56,23.56,0,0,1,121.61,60.93Zm-.29-41.66a17.63,17.63,0,0,0-7.71,1.82,15.19,15.19,0,0,0-5.38,4.58,20.35,20.35,0,0,0-3.11,6.63,30.28,30.28,0,0,0-1,8,22.72,22.72,0,0,0,2.23,9.61,16.92,16.92,0,0,0,6.07,6.9,16.65,16.65,0,0,0,9.21,2.55,21.87,21.87,0,0,0,6.9-1.12c2.62-.87,2.92-2.33,2.92-3.35a2.18,2.18,0,0,0-.51-1.5c-.57-.63-1.28-.75-2.54-.14l-1.5.66c-.66.29-1.2.52-1.61.67a10.71,10.71,0,0,1-1.67.46,15.48,15.48,0,0,1-1.94.26.83.83,0,0,1-.35,0,2.44,2.44,0,0,0-.84-.09h-.09a10.41,10.41,0,0,1-8.73-5.76,23.14,23.14,0,0,1-2.46-10.56,21.5,21.5,0,0,1,1.55-7.24,13.76,13.76,0,0,1,4.14-5.69,10.43,10.43,0,0,1,6.73-2.25,10.78,10.78,0,0,1,2.69.34c.84.22,1.93.55,3.22,1l2.12.71a2.59,2.59,0,0,0,1.52-.65,1.73,1.73,0,0,0,.57-1.34,4.13,4.13,0,0,0-.23-1.12,6.93,6.93,0,0,0-3.38-2.19A19.3,19.3,0,0,0,121.32,19.27Z"/><path class="cls-1" d="M142.26,60.93a4,4,0,0,1-2.86-1.16,4.09,4.09,0,0,1-1.23-3.1V22.06a4.36,4.36,0,0,1,1.19-3.21,4,4,0,0,1,2.9-1.2,4.15,4.15,0,0,1,2.93,1.13,4.1,4.1,0,0,1,1.24,3.13V56.67a4.07,4.07,0,0,1-1.25,3.13A4.16,4.16,0,0,1,142.26,60.93Zm0-41.66a2.39,2.39,0,0,0-1.75.72,2.76,2.76,0,0,0-.72,2.07V56.67a2.52,2.52,0,0,0,.72,1.93,2.49,2.49,0,0,0,1.75.71,2.58,2.58,0,0,0,1.82-.7,2.5,2.5,0,0,0,.73-1.94V21.91a2.51,2.51,0,0,0-.73-1.95A2.56,2.56,0,0,0,142.26,19.27Z"/><path class="cls-1" d="M157.91,61.15a4.1,4.1,0,0,1-3-1.23,4.26,4.26,0,0,1-1.26-3.18V22.13a4.35,4.35,0,0,1,1.2-3.21,4,4,0,0,1,2.89-1.2,4.12,4.12,0,0,1,3,1.17,4.23,4.23,0,0,1,1.22,3,13.84,13.84,0,0,1,3.87-2.71,15.19,15.19,0,0,1,6.55-1.47,15.85,15.85,0,0,1,7.44,1.81,13.71,13.71,0,0,1,5.58,5.54,18.18,18.18,0,0,1,2.08,9V56.74a3.87,3.87,0,0,1-1.24,3,4.26,4.26,0,0,1-2.93,1.06,4.11,4.11,0,0,1-2.87-1.09,3.88,3.88,0,0,1-1.22-3V34.19a8.36,8.36,0,0,0-2.53-6.54,8.55,8.55,0,0,0-6.06-2.36,9.26,9.26,0,0,0-4.28,1,8,8,0,0,0-3.17,3.07,9.56,9.56,0,0,0-1.22,5v22.4A4.43,4.43,0,0,1,160.78,60,3.83,3.83,0,0,1,157.91,61.15Zm-.15-41.81a2.36,2.36,0,0,0-1.75.73,2.78,2.78,0,0,0-.72,2.06V56.74a2.68,2.68,0,0,0,.77,2,2.52,2.52,0,0,0,1.85.77,2.31,2.31,0,0,0,1.72-.69,2.87,2.87,0,0,0,.68-2.1V34.34a11.17,11.17,0,0,1,1.45-5.78,9.57,9.57,0,0,1,3.82-3.68,10.84,10.84,0,0,1,5-1.21,10.31,10.31,0,0,1,7.16,2.78,10.07,10.07,0,0,1,3.05,7.74V56.74a2.31,2.31,0,0,0,.7,1.81,2.5,2.5,0,0,0,1.77.66,2.65,2.65,0,0,0,1.85-.65,2.29,2.29,0,0,0,.7-1.82V34.05A16.57,16.57,0,0,0,184,25.87,12.08,12.08,0,0,0,179,21a14.26,14.26,0,0,0-6.69-1.63,13.53,13.53,0,0,0-5.86,1.31,12.33,12.33,0,0,0-4.58,3.71l-.56.74-1-1V22.12a2.77,2.77,0,0,0-.72-2.07A2.56,2.56,0,0,0,157.76,19.34Z"/><path class="cls-1" d="M211.47,61a19.66,19.66,0,0,1-9-2,17.29,17.29,0,0,1-6.19-5.22,22.19,22.19,0,0,1-3.38-7,28.88,28.88,0,0,1-1.12-7.48.81.81,0,0,1,.09-.37c0-.06,0-.11.07-.14a27,27,0,0,1,2.45-10.11,20,20,0,0,1,6.43-7.91,17.36,17.36,0,0,1,19.7-.15,19.69,19.69,0,0,1,6.57,7.85,23.45,23.45,0,0,1,2.3,10.14c0,2.64-1.61,4.09-4.54,4.09H200.32a12.41,12.41,0,0,0,1.59,5.63A9.85,9.85,0,0,0,206,52.28a13,13,0,0,0,5.83,1.3,15.81,15.81,0,0,0,10.4-4l.05,0a5.79,5.79,0,0,1,3-1.39,2.88,2.88,0,0,1,2.39,1.16,4.1,4.1,0,0,1,.79,2.5,4.58,4.58,0,0,1-1.18,3,19.93,19.93,0,0,1-6.65,4.39A22.89,22.89,0,0,1,211.47,61ZM193.41,39.56a27.28,27.28,0,0,0,1,6.87,20.85,20.85,0,0,0,3.15,6.44,15.54,15.54,0,0,0,5.61,4.72,18,18,0,0,0,8.26,1.79A21.28,21.28,0,0,0,220,57.66a18.26,18.26,0,0,0,6.09-4,2.93,2.93,0,0,0,.76-1.89,2.48,2.48,0,0,0-.46-1.53,1.24,1.24,0,0,0-1.09-.51c-.13,0-.65.08-2,1.07a17.41,17.41,0,0,1-11.43,4.38,14.52,14.52,0,0,1-6.55-1.47,11.45,11.45,0,0,1-4.78-4.48A14.47,14.47,0,0,1,198.67,42a.78.78,0,0,1,.23-.58.79.79,0,0,1,.58-.25h25.37c2.57,0,2.92-1.25,2.92-2.47a22,22,0,0,0-2.14-9.45,18.2,18.2,0,0,0-6-7.21,15.74,15.74,0,0,0-17.82.13,18.47,18.47,0,0,0-5.91,7.28A25.39,25.39,0,0,0,193.55,39a.93.93,0,0,1-.07.33S193.44,39.48,193.41,39.56Zm-.68-.51h0Z"/><path class="cls-1" d="M221.87,37.68H199.48a.79.79,0,0,1-.58-.25.84.84,0,0,1-.23-.59c0-.41.05-.8.08-1.19a14,14,0,0,1,3.47-8.57A11.58,11.58,0,0,1,211,23.52a11,11,0,0,1,8.5,3.81,14.38,14.38,0,0,1,3.12,8.33c0,.39,0,.79.05,1.2a.81.81,0,0,1-.23.58A.83.83,0,0,1,221.87,37.68Zm-21.53-1.62H221c0-.09,0-.19,0-.28a12.72,12.72,0,0,0-2.74-7.4A9.25,9.25,0,0,0,211,25.14a9.91,9.91,0,0,0-7.6,3.05,12.43,12.43,0,0,0-3,7.6A2.45,2.45,0,0,1,200.34,36.06Z"/><path class="cls-1" d="M265.5,61a4,4,0,0,1-2.74-1,3.71,3.71,0,0,1-1.21-2.89V56.2a13.47,13.47,0,0,1-10,4.8h0a18.24,18.24,0,0,1-16.68-10.25,24.54,24.54,0,0,1-2.47-11.19,24.65,24.65,0,0,1,2.73-12,18.66,18.66,0,0,1,7-7.39,17.3,17.3,0,0,1,8.58-2.42,15,15,0,0,1,6.65,1.37,15.75,15.75,0,0,1,4.15,3.05v-.33a4,4,0,0,1,1.17-2.95,3.84,3.84,0,0,1,2.78-1.14,3.78,3.78,0,0,1,2.8,1.16,4.22,4.22,0,0,1,1.14,3.1V56.74a4.23,4.23,0,0,1-1.14,3.17A3.9,3.9,0,0,1,265.5,61Zm-3.7-7.72h1.38v3.79a2.11,2.11,0,0,0,.66,1.68,2.34,2.34,0,0,0,1.66.63,2.28,2.28,0,0,0,1.67-.64,2.7,2.7,0,0,0,.65-2V22a2.65,2.65,0,0,0-.67-2,2.2,2.2,0,0,0-1.65-.68,2.29,2.29,0,0,0-1.65.67,2.41,2.41,0,0,0-.67,1.8v3h-1.33l-.24-.28a16.59,16.59,0,0,0-4.92-4,13.58,13.58,0,0,0-5.94-1.2A15.65,15.65,0,0,0,243,21.55a17,17,0,0,0-6.38,6.76,23,23,0,0,0-2.53,11.25A23,23,0,0,0,236.37,50,16.74,16.74,0,0,0,242.66,57a17,17,0,0,0,8.92,2.43c4-.1,7.24-2,10-5.77Z"/><path class="cls-1" d="M250.74,55.2a9.57,9.57,0,0,1-6.45-2.31A13.56,13.56,0,0,1,240.42,47a22.91,22.91,0,0,1-1.25-7.63h0a20.38,20.38,0,0,1,3-11.15,10.46,10.46,0,0,1,8.85-4.7h.18a10.44,10.44,0,0,1,6.21,2,12.52,12.52,0,0,1,4.17,5.59A22.39,22.39,0,0,1,263,39.39a20.92,20.92,0,0,1-2.79,11C258.31,53.59,255.12,55.2,250.74,55.2Zm-10-15.8A21.2,21.2,0,0,0,242,46.48a12,12,0,0,0,3.4,5.19,7.9,7.9,0,0,0,5.39,1.91c3.83,0,6.48-1.31,8.12-4a19.38,19.38,0,0,0,2.55-10.19,20.58,20.58,0,0,0-1.33-7.7,10.85,10.85,0,0,0-3.61-4.89,8.77,8.77,0,0,0-5.26-1.65h-.15a8.81,8.81,0,0,0-7.53,4A18.77,18.77,0,0,0,240.79,39.4Z"/></g></g></svg>