<?xml version="1.0" encoding="UTF-8"?>
<svg width="79px" height="79px" viewBox="0 0 79 79" version="1.1" xmlns="http://www.w3.org/2000/svg" xmlns:xlink="http://www.w3.org/1999/xlink">
    <!-- Generator: Sketch 56.2 (81672) - https://sketch.com -->
    <title>ccRecurso 6</title>
    <desc>Created with Sketch.</desc>
    <g id="Page-1" stroke="none" stroke-width="1" fill="none" fill-rule="evenodd">
        <g id="HOME-1" transform="translate(-930.000000, -2174.000000)" fill="#FFFAF5" fill-rule="nonzero">
            <g id="ccRecurso-6" transform="translate(930.000000, 2174.000000)">
                <path d="M39.5183423,78 C39.1891281,78 38.866008,77.9106057 38.5828838,77.7414786 L1.89823458,55.5824971 C1.34138637,55.2498582 1,54.6462941 1,53.9944368 C1,53.3425795 1.34138637,52.7390154 1.89823458,52.4063765 L38.5828838,30.247395 C39.1503973,29.917535 39.8496027,29.917535 40.4171162,30.247395 L77.1017654,52.4063765 C77.6586136,52.7390154 78,53.3425795 78,53.9944368 C78,54.6462941 77.6586136,55.2498582 77.1017654,55.5824971 L40.4171162,77.7414786 C40.1447288,77.9043469 39.8350829,77.9934128 39.5183423,78 Z" id="Path" stroke="#FFD8CF"></path>
                <path d="M39.5183423,64 C39.1891281,64 38.866008,63.9106057 38.5828838,63.7414786 L1.89823458,41.5824971 C1.34138637,41.2498582 1,40.6462941 1,39.9944368 C1,39.3425795 1.34138637,38.7390154 1.89823458,38.4063765 L38.5828838,16.247395 C39.1503973,15.917535 39.8496027,15.917535 40.4171162,16.247395 L77.1017654,38.4063765 C77.6586136,38.7390154 78,39.3425795 78,39.9944368 C78,40.6462941 77.6586136,41.2498582 77.1017654,41.5824971 L40.4171162,63.7414786 C40.1447288,63.9043469 39.8350829,63.9934128 39.5183423,64 Z" id="Path" stroke="#FFB9A6"></path>
                <path d="M39.5183423,49 C39.1891281,49 38.866008,48.9106057 38.5828838,48.7414786 L1.89823458,26.5824971 C1.34138637,26.2498582 1,25.6462941 1,24.9944368 C1,24.3425795 1.34138637,23.7390154 1.89823458,23.4063765 L38.5828838,1.24739505 C39.1503973,0.917534984 39.8496027,0.917534984 40.4171162,1.24739505 L77.1017654,23.4063765 C77.6586136,23.7390154 78,24.3425795 78,24.9944368 C78,25.6462941 77.6586136,26.2498582 77.1017654,26.5824971 L40.4171162,48.7414786 C40.1447288,48.9043469 39.8350829,48.9934128 39.5183423,49 Z" id="Path" stroke="#FF4600"></path>
            </g>
        </g>
    </g>
</svg>