<?xml version="1.0" encoding="UTF-8"?>
<svg width="79px" height="79px" viewBox="0 0 79 79" version="1.1" xmlns="http://www.w3.org/2000/svg" xmlns:xlink="http://www.w3.org/1999/xlink">
    <!-- Generator: Sketch 56.2 (81672) - https://sketch.com -->
    <title>ccRecurso 7</title>
    <desc>Created with Sketch.</desc>
    <g id="Page-1" stroke="none" stroke-width="1" fill="none" fill-rule="evenodd">
        <g id="HOME-1" transform="translate(-429.000000, -2174.000000)" fill-rule="nonzero">
            <g id="ccRecurso-7" transform="translate(429.000000, 2174.000000)">
                <path d="M74.3333333,78 L4.66666667,78 C2.64162258,78 1,76.3583774 1,74.3333333 L1,4.66666667 C1,2.64162258 2.64162258,1 4.66666667,1 L74.3333333,1 C76.3583774,1 78,2.64162258 78,4.66666667 L78,74.3333333 C78,76.3583774 76.3583774,78 74.3333333,78 Z" id="Path" stroke="#FF4600" fill="#FFFAF5"></path>
                <path d="M67.15625,31 L11.84375,31 C10.825475,31 10,31.8140277 10,32.8181818 L10,69.1818182 C10,70.1859723 10.825475,71 11.84375,71 L67.15625,71 C68.174525,71 69,70.1859723 69,69.1818182 L69,32.8181818 C69,31.8140277 68.174525,31 67.15625,31 Z" id="Path" fill="#FFE1DC"></path>
                <circle id="Oval" stroke="#FFB9A6" fill="#FFFAF5" cx="39.5" cy="10.5" r="3.5"></circle>
                <circle id="Oval" stroke="#FFB9A6" fill="#FFFAF5" cx="22.5" cy="10.5" r="3.5"></circle>
                <circle id="Oval" stroke="#FFB9A6" fill="#FFFAF5" cx="56.5" cy="10.5" r="3.5"></circle>
                <rect id="Rectangle" stroke="#FF8A66" fill="#FFFAF5" x="1" y="19" width="77" height="4"></rect>
                <path d="M71.1666667,34 L8.83333333,34 C7.82081129,34 7,33.1045695 7,32 C7,30.8954305 7.82081129,30 8.83333333,30 L71.1666667,30 C72.1791887,30 73,30.8954305 73,32 C73,33.1045695 72.1791887,34 71.1666667,34 Z" id="Path" stroke="#FFB9A6" fill="#FFFAF5"></path>
                <rect id="Rectangle" stroke="#FFB9A6" fill="#FFFAF5" x="10" y="41" width="59" height="22"></rect>
            </g>
        </g>
    </g>
</svg>