<?xml version="1.0" encoding="UTF-8"?>
<svg width="85px" height="81px" viewBox="0 0 85 81" version="1.1" xmlns="http://www.w3.org/2000/svg" xmlns:xlink="http://www.w3.org/1999/xlink">
    <!-- Generator: Sketch 56.2 (81672) - https://sketch.com -->
    <title>ccRecurso 5</title>
    <desc>Created with Sketch.</desc>
    <g id="Page-1" stroke="none" stroke-width="1" fill="none" fill-rule="evenodd">
        <g id="HOME-1" transform="translate(-426.000000, -2592.000000)" fill-rule="nonzero">
            <g id="ccRecurso-5" transform="translate(427.000000, 2593.000000)">
                <path d="M38.2142857,72 C25.3933897,72 15,61.6066103 15,48.7857143 C15,47.7994915 15.7994915,47 16.7857143,47 C17.7719371,47 18.5714286,47.7994915 18.5714286,48.7857143 C18.5714286,59.6341647 27.3658353,68.4285714 38.2142857,68.4285714 C39.2005085,68.4285714 40,69.2280629 40,70.2142857 C40,71.2005085 39.2005085,72 38.2142857,72 Z" id="Path" fill="#FF8A66"></path>
                <path d="M16.5,0 C7.38730163,0 0,7.50729329 0,16.7680089 C0,25.5432669 13.75,38.9763051 15.235,40.4854259 C15.9432135,41.1715247 17.0567865,41.1715247 17.765,40.4854259 C19.3233333,38.9763051 33,25.5805291 33,16.7680089 C33,7.50729329 25.6126984,0 16.5,0 Z M16.5,22.3573452 C14.2754577,22.3573452 12.2699581,20.9955471 11.4186626,18.9069553 C10.5673671,16.8183635 11.0379237,14.4142903 12.6109127,12.8157513 C14.1839017,11.2172123 16.5495497,10.7390124 18.6047589,11.6041355 C20.659968,12.4692585 22,14.5073334 22,16.7680089 C22,18.250393 21.4205374,19.6720626 20.3890873,20.7202665 C19.3576372,21.7684704 17.9586907,22.3573452 16.5,22.3573452 L16.5,22.3573452 Z" id="Shape" stroke="#FFB9A6" fill="#FFFAF5"></path>
                <path d="M59.5180908,20 C46.5294079,20 36,30.4073129 36,43.2453839 C36,55.7621291 57.3110085,77.5412657 58.2155504,78.4710811 C58.555236,78.8095923 59.0176303,79 59.5,79 C59.9823697,79 60.444764,78.8095923 60.7844496,78.4710811 L60.7844496,78.4710811 C61.6889915,77.5412657 83,55.6727238 83,43.2453839 C83,30.4212659 72.4926417,20.0197294 59.5180908,20 Z M59.5180908,52.1859162 C54.5224436,52.1859162 50.4726713,48.1831036 50.4726713,43.2453839 C50.4726713,38.3076643 54.5224436,34.3048516 59.5180908,34.3048516 C64.5137381,34.3048516 68.5635104,38.3076643 68.5635104,43.2453839 C68.5635104,48.1831036 64.5137381,52.1859162 59.5180908,52.1859162 Z" id="Shape" stroke="#FF4600" fill="#FFFAF5"></path>
            </g>
        </g>
    </g>
</svg>