<svg xmlns="http://www.w3.org/2000/svg" viewBox="0 0 303.28 84.52"><defs><style>.cls-1{fill:#ff490d;}</style></defs><title>jillicious</title><g id="Capa_2" data-name="Capa 2"><g id="Capa_1-2" data-name="Capa 1"><path class="cls-1" d="M279.89,52.24a2.37,2.37,0,0,0,1.47.87,11.17,11.17,0,0,0,3.05.55,15.42,15.42,0,0,0,2.62-.27,18.72,18.72,0,0,0,3-1,15.89,15.89,0,0,0,4-2.49,35.26,35.26,0,0,0,6.14-6.77c.39-.53.78-1.07,1.18-1.6.21-.29.46-.57.87-.48a1.11,1.11,0,0,1,.9.79,3.76,3.76,0,0,1-.25,2.77,21.76,21.76,0,0,1-4.27,5.71,21.54,21.54,0,0,1-7.4,5.07,17.34,17.34,0,0,1-7.85,1.25,30.88,30.88,0,0,1-3.6-.51,9.81,9.81,0,0,1-1.5-.51,12.18,12.18,0,0,1-6.12-5c-.1-.15-.19-.31-.29-.45-.39-.54-.7-.57-1.21-.14s-1.27,1.18-1.95,1.7a16.56,16.56,0,0,1-5,2.79,10.08,10.08,0,0,1-5.23.31,9.13,9.13,0,0,1-6.19-4.79,5.36,5.36,0,0,0-.34-.57c-.31-.41-.52-.39-.82,0-.56.79-1.09,1.61-1.71,2.35a7.69,7.69,0,0,1-3.88,2.68,6.07,6.07,0,0,1-6.88-2.17,7.36,7.36,0,0,1-1.48-2.72c-.07-.21-.14-.42-.22-.63-.26-.71-.45-.78-1.14-.48a13.91,13.91,0,0,1-1.73.65,11.12,11.12,0,0,1-2.33.49c-1.52.06-3,0-4.57,0a2.6,2.6,0,0,1-.39,0,1.09,1.09,0,0,0-1.21.6,24.85,24.85,0,0,1-1.39,2.34,10,10,0,0,1-6,4.17,13.05,13.05,0,0,1-3.63.22,5.56,5.56,0,0,1-2.81-.9,7.36,7.36,0,0,1-3.06-3.57c-.07-.2-.17-.4-.26-.61-.31-.67-.5-.71-1.07-.21s-.86.77-1.29,1.15a15.86,15.86,0,0,1-3.88,2.52,12.29,12.29,0,0,1-6.58,1.21,9.09,9.09,0,0,1-7.34-4.83c-.27-.51-.49-1-.72-1.57s-.42-.65-.92-.23c-.83.69-1.62,1.43-2.46,2.12a21,21,0,0,1-6.59,3.62,19.81,19.81,0,0,1-4,1,23.66,23.66,0,0,1-6.29,0,11.55,11.55,0,0,1-8-4.56c-.28-.39-.49-.83-.74-1.25a4.25,4.25,0,0,0-.27-.46.46.46,0,0,0-.7-.09,3.31,3.31,0,0,0-.33.32c-1.07,1-2.09,2-3.21,2.87a14.37,14.37,0,0,1-4.11,2.28,12.54,12.54,0,0,1-4.73.82,9.2,9.2,0,0,1-8.25-5.11c-.14-.28-.29-.55-.45-.82-.38-.6-.56-.63-1.07-.16-.19.18-.37.38-.57.55a29.08,29.08,0,0,1-4.55,3.34,19,19,0,0,1-4.88,1.84,22.12,22.12,0,0,1-5.74.33c-.61,0-1.21-.24-1.83-.31a11.19,11.19,0,0,1-2-.55A11.45,11.45,0,0,1,112,53.57c-.21-.17-.41-.34-.62-.49a.88.88,0,0,0-1.22,0,16.67,16.67,0,0,1-6.1,3,11.42,11.42,0,0,1-3.86.55c-.33,0-.66,0-1,0a15.7,15.7,0,0,1-3.35-.3,17.06,17.06,0,0,1-2.67-.77,10.43,10.43,0,0,1-3-1.77c-.91-.73-1.06-.73-2-.07A17.56,17.56,0,0,1,84,55.92a11.58,11.58,0,0,1-6.72.38,8.64,8.64,0,0,1-5-3.25,7.94,7.94,0,0,1-1.73-3.54,1.91,1.91,0,0,0-.13-.45,6,6,0,0,1-.11-4,11.92,11.92,0,0,0,.42-2.27,7.7,7.7,0,0,1,.89-2.77,1.42,1.42,0,0,1,.84-.68,4,4,0,0,1,2-.08,1.7,1.7,0,0,1,1.3,1.83,6.2,6.2,0,0,1-.26,1.5,12.91,12.91,0,0,0-.59,4,14.94,14.94,0,0,0,.13,2.91,4.44,4.44,0,0,0,4.18,3.71A9,9,0,0,0,85,51.62a16,16,0,0,0,1.48-1.12.86.86,0,0,0,.21-1.08c-.45-1.22-.92-2.44-1.28-3.69a17.06,17.06,0,0,1-.33-2.29,2.31,2.31,0,0,0,0-.46,13.3,13.3,0,0,1-.45-2.87,4.75,4.75,0,0,1,0-.53c0-2.28,0-4.56,0-6.84a10,10,0,0,1,.31-1.69c.08-.43.21-.86.25-1.3a13.72,13.72,0,0,1,.67-3.1c.32-1,.54-2,.81-3a4.28,4.28,0,0,1,.15-.51C87.5,21.43,88.16,19.69,89,18a25.84,25.84,0,0,1,4.71-7A10.59,10.59,0,0,1,98,8.24a3,3,0,0,1,.78-.14c.75,0,1.5,0,2.25,0a5.14,5.14,0,0,1,3.74,1.75,7.85,7.85,0,0,1,2.15,4.88,36.43,36.43,0,0,1,.15,4.3,19.61,19.61,0,0,1-.78,5,9.71,9.71,0,0,0-.2,1.1,2.57,2.57,0,0,1-.07.4c-.24.8-.46,1.6-.74,2.39-.4,1.17-.81,2.34-1.28,3.48s-1,2.14-1.49,3.18-1.12,2.21-1.75,3.27c-.78,1.32-1.58,2.62-2.44,3.88-1.31,1.94-2.68,3.84-4,5.75-.46.63-1,1.21-1.47,1.8s-.57,1,.09,1.57a9.73,9.73,0,0,0,2.62,1.67,14.7,14.7,0,0,0,2.73.76,10.93,10.93,0,0,0,3.18,0,13.86,13.86,0,0,0,6.45-2.61l.15-.12c.87-.66.89-.84.49-1.84a19.29,19.29,0,0,1-1.4-5.44c-.07-.83-.24-1.66-.29-2.49-.08-1.24-.11-2.48-.13-3.71s0-2.35,0-3.52a11.13,11.13,0,0,1,.33-2.69c.17-.75.22-1.54.36-2.29.1-.5.26-1,.4-1.47a2,2,0,0,0,.12-.31,19,19,0,0,1,.91-3.38c0-.08,0-.18.06-.26.32-.82.64-1.64,1-2.45.26-.64.53-1.26.81-1.89a31.89,31.89,0,0,1,3-5.23A15.4,15.4,0,0,1,118.39,9a6.54,6.54,0,0,1,3.92-1l.53,0a5.54,5.54,0,0,1,5,3A7,7,0,0,1,129,14.34c.08,1.06.2,2.11.24,3.17a19,19,0,0,1-.45,4.88,26,26,0,0,1-1,4.25c-.39,1-.62,2.07-1,3.09-.27.77-.64,1.51-.94,2.26a54.32,54.32,0,0,1-3.21,6.32c-1,1.69-2.1,3.28-3.2,4.88a37.92,37.92,0,0,1-4,5c-.35.37-.68.76-1,1.14s-.3.46,0,.82a3.16,3.16,0,0,0,.56.65,12,12,0,0,0,4.22,2.3,4,4,0,0,0,.59.09c.52.09,1,.15,1.56.28a2.14,2.14,0,0,0,1.3,0,2.62,2.62,0,0,1,.9-.21A9.39,9.39,0,0,0,127.76,52a18.79,18.79,0,0,0,5.36-4c.8-.82,1.55-1.69,2.31-2.55a3.6,3.6,0,0,0,.9-2.44,9.65,9.65,0,0,1,.79-2.93,1.33,1.33,0,0,1,1.06-.82,5.89,5.89,0,0,1,1.38-.15,1.75,1.75,0,0,1,1.81,2.11c-.09.63-.26,1.25-.39,1.87-.09.45-.22.91-.27,1.36a17.76,17.76,0,0,0,0,4.83,4.33,4.33,0,0,0,2.43,3.35,6.17,6.17,0,0,0,4.33.32,13.8,13.8,0,0,0,6-3.49,28.79,28.79,0,0,0,4-4.29A4.92,4.92,0,0,0,158.55,43a1.64,1.64,0,0,1,.1-.38,17.29,17.29,0,0,1,3.4-5.41,12.39,12.39,0,0,1,5-3.28,11.83,11.83,0,0,1,7.61-.22A4.91,4.91,0,0,1,178,38.17a5.46,5.46,0,0,1-2,4.27,17,17,0,0,1-1.82,1.33,3.29,3.29,0,0,1-1,.36,1.64,1.64,0,0,1-1.76-2,3.33,3.33,0,0,1,.66-1.21,4.89,4.89,0,0,0,1.27-2,3.24,3.24,0,0,0,.17-1c0-.87-.41-1.27-1.29-1.37a6.47,6.47,0,0,0-4.8,1.29,12,12,0,0,0-3,3,10.22,10.22,0,0,0-1.66,4.35,14.86,14.86,0,0,0,0,4.16A4.22,4.22,0,0,0,165,52.51a9.54,9.54,0,0,0,4.43,1.23c.79,0,1.59,0,2.39,0a12.93,12.93,0,0,0,3.07-.44,17.65,17.65,0,0,0,3.13-1,16.38,16.38,0,0,0,5.13-3.49c.9-.88,1.76-1.81,2.59-2.75a16.66,16.66,0,0,0,1.39-1.86,3,3,0,0,0,.34-1c.14-.57.24-1.16.38-1.74.07-.3.2-.59.24-.89a1.46,1.46,0,0,1,1.17-1.22,5,5,0,0,1,1.58-.13,1.76,1.76,0,0,1,1.7,2.15c-.09.65-.29,1.29-.43,1.94a16.17,16.17,0,0,0-.25,6.31,4.44,4.44,0,0,0,4.08,3.59A9.44,9.44,0,0,0,202,51.5a19.87,19.87,0,0,0,4-3.37c.66-.72,1.34-1.41,2-2.14a4,4,0,0,0,1-2,5.08,5.08,0,0,1,.38-1.05c.33-.7.65-1.4,1-2.08a6.91,6.91,0,0,1,3.35-3.27,2.06,2.06,0,0,0,1-1,4.43,4.43,0,0,1,2.85-2.31,8.35,8.35,0,0,1,3.88-.11,5.68,5.68,0,0,1,3.36,2.24,10,10,0,0,1,1.67,3.29,12.8,12.8,0,0,1,.58,4.38c0,.41-.08.83-.13,1.25-.07.58,0,.79.55,1a6.58,6.58,0,0,0,1.74.36,10,10,0,0,0,3.81-.37A8.55,8.55,0,0,0,236.73,44a2.21,2.21,0,0,0,.46-.72c.27-.8.49-1.61.72-2.41a3.28,3.28,0,0,1,.11-.45c.46-1.17.9-2.35,1.39-3.51a2.14,2.14,0,0,1,2.73-1.15,1.79,1.79,0,0,1,1.48,2.43,3.51,3.51,0,0,1-.19.63,15.58,15.58,0,0,0-1.3,3.75.67.67,0,0,1,0,.19,8.88,8.88,0,0,0-.66,3.49.29.29,0,0,1,0,.13,5.77,5.77,0,0,0,0,2.74,2.34,2.34,0,0,0,3.22,2,6.36,6.36,0,0,0,2.68-2.1,19.34,19.34,0,0,0,2.55-4.11c.31-.71.64-1.41,1-2.11a.61.61,0,0,0,.05-.12c.32-1.15.66-2.29.94-3.44a3.61,3.61,0,0,1,1-1.68.49.49,0,0,1,.23-.14,3.47,3.47,0,0,1,2.46,0,1.63,1.63,0,0,1,.86,2.06,15.16,15.16,0,0,0-.77,4.95c0,1-.1,2-.12,3.05a5.25,5.25,0,0,0,1.19,3.24,2.55,2.55,0,0,0,1,.77,5.44,5.44,0,0,0,3.85.45,16.89,16.89,0,0,0,3.66-1.34,14.26,14.26,0,0,0,3.64-2.86,54.25,54.25,0,0,0,5.61-7.63,15.49,15.49,0,0,0,.92-2l.3-.67.33-.86c.13-.39.27-.79.39-1.19a5.8,5.8,0,0,0,.27-1.22,9.1,9.1,0,0,1,.88-2.91,2.07,2.07,0,0,1,1.74-1.17,7.58,7.58,0,0,1,1.26,0,2.71,2.71,0,0,1,2.23,1.37,5.33,5.33,0,0,1,.73,2.78,9.75,9.75,0,0,0,.44,2.67c.41,1.28,1,2.49,1.46,3.77a18.5,18.5,0,0,1,1.23,3.56,6,6,0,0,1-.69,4,8.16,8.16,0,0,1-4.19,3.6,8.77,8.77,0,0,1-1.15.28ZM88.2,36.91h.06a24.84,24.84,0,0,0,0,2.59c.11,1,.34,2,.52,3.07,0,.19,0,.39.07.59.26,1,.49,2.06.79,3.07.17.57.67.62,1.07.17.18-.2.33-.42.51-.62A44,44,0,0,0,96.16,39c.83-1.44,1.51-2.95,2.19-4.45.49-1.09.89-2.21,1.32-3.32a5.32,5.32,0,0,0,.16-.57c.07-.26.15-.51.24-.76.33-.89.66-1.78,1-2.67a2.46,2.46,0,0,0,.09-.39c.25-.93.59-1.84.88-2.76a6.17,6.17,0,0,0,.49-2.23.93.93,0,0,1,0-.33,19.92,19.92,0,0,0,.53-3.53,10.51,10.51,0,0,0-.6-4.62,2.22,2.22,0,0,0-2.88-1.41,7.7,7.7,0,0,0-3.16,2.14,15.63,15.63,0,0,0-2,2.65c-.46.78-1,1.53-1.39,2.33-.59,1.19-1.12,2.4-1.63,3.63a23.62,23.62,0,0,0-1.07,2.91,12.83,12.83,0,0,0-.88,3.32.93.93,0,0,1-.14.38,5.24,5.24,0,0,0-.45,1.79,9.22,9.22,0,0,1-.2,1.17,14.21,14.21,0,0,0-.5,4.4A2.25,2.25,0,0,1,88.2,36.91Zm22.18.15c0,.33,0,.67,0,1a12.85,12.85,0,0,0,.37,3.81c.11.41.1.84.2,1.25.24,1,.5,2,.79,3a.48.48,0,0,0,.79.28,1.68,1.68,0,0,0,.4-.35q.82-1,1.62-2.1a26.08,26.08,0,0,1,2-2.63,10.64,10.64,0,0,0,1.92-2.75,23.25,23.25,0,0,0,1.49-3.1c.31-.89.77-1.73,1.15-2.6q.36-.85.66-1.74c.35-1,.6-2.08,1-3.07.7-1.6,1-3.35,1.73-4.93a2.27,2.27,0,0,0,.11-.65c0-.31.06-.62.1-.92.18-1.4.38-2.8.56-4.2a1.42,1.42,0,0,0,0-.46c-.15-.92-.29-1.83-.47-2.74a5,5,0,0,0-.32-1,2.23,2.23,0,0,0-2.79-1.25,7.91,7.91,0,0,0-3,2,23.68,23.68,0,0,0-1.8,2.3,27.77,27.77,0,0,0-3.25,6.2,28.6,28.6,0,0,0-1.38,3.93c0,.11-.09.2-.12.31-.15.5-.29,1-.43,1.52-.09.32-.12.65-.23,1a7.88,7.88,0,0,0-.58,2.71,1.86,1.86,0,0,1-.15.65,6.94,6.94,0,0,0-.36,2.48Zm105.28,17a5.79,5.79,0,0,0,2.34-.61,9.65,9.65,0,0,0,3.79-4.4c.17-.34.1-.54-.25-.79s-.63-.41-.94-.62a14.11,14.11,0,0,1-4.12-3.69c-.18-.27-.39-.53-.6-.79-.46-.57-.86-.59-1.27,0-.53.78-1,1.61-1.46,2.43A9.38,9.38,0,0,0,212.3,48a6.25,6.25,0,0,0,.39,4.32,2.19,2.19,0,0,0,1.19,1.2C214.51,53.73,215.17,53.89,215.66,54.05Zm66.47-9.63a8.36,8.36,0,0,0-.73-4.06,9.75,9.75,0,0,0-1.8-2.6c-.34-.36-.66-.29-.89.17a7.45,7.45,0,0,0-.36.93,8.29,8.29,0,0,1-.36,1.2c-.49,1-1,1.92-1.57,2.83s-1.23,1.78-1.87,2.65a1.09,1.09,0,0,0-.15,1.24c.37.72.77,1.43,1.15,2.15a1.5,1.5,0,0,0,1.74.77c.65-.11,1.29-.28,1.93-.45a4.11,4.11,0,0,0,2.92-3.9C282.12,45,282.13,44.73,282.13,44.42Zm-59.21-.81c-.06-.8-.15-1.55-.15-2.3a6,6,0,0,0-.87-3,1.56,1.56,0,0,0-1.08-.79A2.12,2.12,0,0,0,218.38,40a5.17,5.17,0,0,0,1.13,2.37,9.74,9.74,0,0,0,2.19,1.91c.27.17.55.43.9.27S222.89,43.89,222.92,43.61Z"/><path class="cls-1" d="M55.34,34.9l.24-4.63a18.44,18.44,0,0,1,.19-2.58c.32-1.54.36-3.11.55-4.67.13-1.09.38-2.17.56-3.26,0-.26,0-.53.08-.79.09-.76.18-1.53.28-2.3.12-.92.25-1.83.34-2.75,0-.32.13-.77-.21-.91s-.57.29-.82.52c-.08.08-.14.18-.21.26-.63.72-1.23.71-1.82,0a2,2,0,0,1-.45-1.61,5.31,5.31,0,0,1,.61-1.81c.35-.64.62-1.32.93-2s.53-1.07.81-1.6L58.75,2.3a1,1,0,0,0,.13-.23A2.87,2.87,0,0,1,60.31.33,2,2,0,0,1,62.2.16c.41.14.85.24,1.25.41a8,8,0,0,1,1.66.8,2.38,2.38,0,0,1,.64,3.05,21.54,21.54,0,0,0-.91,2.35C64.5,8,64.27,9.26,64,10.51c-.36,1.57-.73,3.14-1.09,4.71a2.44,2.44,0,0,0-.13.44c-.11,1.66-.82,3.21-.87,4.89a4.64,4.64,0,0,1-.19,1,10.69,10.69,0,0,0-.46,2.87,1.28,1.28,0,0,1-.07.39,20.89,20.89,0,0,0-.7,4.58,10.68,10.68,0,0,1-.18,1.11c-.11.77-.24,1.53-.34,2.29-.25,2-.48,4-.72,5.92a7.28,7.28,0,0,0-.07.93c0,1,0,2,0,3,0,1.28-.1,2.56-.17,3.84a3.45,3.45,0,0,1-.18.77.79.79,0,0,0,.44,1.1,2.21,2.21,0,0,0,.42.18A39.9,39.9,0,0,1,65,50.32a5.92,5.92,0,0,1,1.07.53,1.89,1.89,0,0,1,.85,1.83.93.93,0,0,1-1.25.88,3.34,3.34,0,0,1-.91-.39,15.19,15.19,0,0,0-3.91-1.44c-.45-.13-.9-.21-1.35-.34-.95-.26-1.41,0-1.6,1-.27,1.39-.55,2.77-.83,4.16-.08.36-.21.72-.32,1.08s-.28,1-.43,1.52a2,2,0,0,1-.08.33c-.41,1.28-.78,2.57-1.25,3.83S54,65.77,53.45,67a36.69,36.69,0,0,1-1.73,3.43Q50.44,72.53,49,74.56a28,28,0,0,1-2.37,2.85,24,24,0,0,1-2.31,2.08,20.92,20.92,0,0,1-4.76,3,20.16,20.16,0,0,1-4,1.33c-.58.12-1.15.33-1.74.41a17.58,17.58,0,0,1-4.35.21c-1-.12-1.94-.09-2.9-.22-1.46-.19-2.92-.46-4.38-.7a38.94,38.94,0,0,1-5.33-1.37A29.61,29.61,0,0,1,12.9,80.6a28.9,28.9,0,0,1-5.58-3.44,21.31,21.31,0,0,1-4.17-4.52A15.42,15.42,0,0,1,1.05,68a28.12,28.12,0,0,0-.89-2.83A2.08,2.08,0,0,1,0,64.39c0-1,0-1.9,0-2.85a1.71,1.71,0,0,1,.39-1,4.54,4.54,0,0,0,.56-1,11.24,11.24,0,0,1,1.52-2.56A14.71,14.71,0,0,1,5.18,54.1a26.25,26.25,0,0,1,6.82-4c1-.4,2-.83,3-1.19.7-.25,1.44-.4,2.16-.6l1.79-.5c.53-.14,1.06-.29,1.6-.4s.84-.08,1.24-.18c1.64-.42,3.32-.53,5-.8a25.69,25.69,0,0,1,2.91-.19,18.44,18.44,0,0,0,2.58-.08,39.85,39.85,0,0,1,6.55-.2c1.28,0,2.56.15,3.84.22.84,0,1.68,0,2.51.12q2.28.18,4.56.42c.81.08,1.62.2,2.43.31a7,7,0,0,0,.78.12c.77,0,1.08-.25,1.18-1,.2-1.53.44-3.06.63-4.6.09-.72.12-1.45.17-2.18s.11-1.63.16-2.44c0-.14,0-.27.06-.4.08-.52.17-1,.25-1.56ZM36.91,49.2a45.81,45.81,0,0,0-8.56.44c-1.79.23-3.56.66-5.34,1a30.25,30.25,0,0,0-4.79,1.3,30.64,30.64,0,0,0-7.59,3.74,16.18,16.18,0,0,0-4,3.69,13.77,13.77,0,0,0-2.25,4.25,11,11,0,0,0-.49,3,2.43,2.43,0,0,0,.12.85A20.45,20.45,0,0,0,5.12,69.7a14.91,14.91,0,0,0,3.77,4.15A23.71,23.71,0,0,0,13.79,77a40.43,40.43,0,0,0,5.08,1.92,17.11,17.11,0,0,0,4,.91,3,3,0,0,1,.51.14c.44.08.87.18,1.3.23,1.29.16,2.59.32,3.88.45a9.11,9.11,0,0,0,1.65,0,18.61,18.61,0,0,0,2-.32,25.38,25.38,0,0,0,2.9-.65,18.8,18.8,0,0,0,6.31-3.45,26.72,26.72,0,0,0,5.48-6.09c.83-1.3,1.59-2.65,2.33-4,.41-.76.72-1.56,1.06-2.35s.55-1.3.8-2c.35-.93.73-1.85,1-2.8.36-1.32.6-2.67.93-4a14.37,14.37,0,0,0,.53-3.33c0-1.15-.15-1.34-1.29-1.45-.62-.06-1.24,0-1.85-.15a41.19,41.19,0,0,0-5.87-.54c-.27,0-.53,0-.79-.07-.83-.1-1.66-.25-2.5-.28C39.8,49.16,38.41,49.2,36.91,49.2Z"/><path class="cls-1" d="M261.29,68.18a4.26,4.26,0,0,0,.13-.51c0-.44,0-.88.07-1.32a2.34,2.34,0,0,1,.71-1.53,3.4,3.4,0,0,1,4.68-.13,2.15,2.15,0,0,0,.36.21c.06-.16.12-.27.15-.39.13-.57.19-.62.72-.67a18.17,18.17,0,0,1,3.38,0c.64.06,1,.5.75,1a1.2,1.2,0,0,1-.5.47c-.12.08-.3,0-.45.07-.53.08-.62.18-.65.73,0,.22,0,.44,0,.67v11c0,.22,0,.44,0,.66,0,.52-.25.75-.73.76a.69.69,0,0,1-.78-.71,7,7,0,0,1,0-.79V66.45c0-.93-.5-1.3-1.42-1.08-.22,0-.25.2-.23.4.06.72.15,1.45.15,2.17,0,3.26,0,6.51,0,9.76a4.1,4.1,0,0,1-.05.86.7.7,0,0,1-.82.6c-.41,0-.61-.24-.65-.7,0-.19,0-.4,0-.59,0-2.06.06-4.12.07-6.17,0-1,0-2.08-.06-3.12,0-.53,0-1.06,0-1.58a1.49,1.49,0,0,0-.14-.51,1.6,1.6,0,0,0-1.53-1.07A1.81,1.81,0,0,0,263,66.86a5.62,5.62,0,0,0-.05.92v10c0,.22,0,.44,0,.66a.75.75,0,0,1-1.16.68,4.41,4.41,0,0,1-.58-.38,1.68,1.68,0,0,1-1.51.48c-.88,0-1.77,0-2.65,0s-.95-.2-1-1c0-1.48,0-3,0-4.44,0-2.3,0-4.6,0-6.9,0-.71-.09-1.41-.09-2.12s.2-.91.91-.92c1.15,0,2.3,0,3.45,0a.73.73,0,0,1,.74,1,.69.69,0,0,1-.7.49c-.53,0-1.06,0-1.6,0-.22,0-.44,0-.66,0a.5.5,0,0,0-.48.53c0,.27,0,.54,0,.8,0,.62.16.77.8.8.35,0,.7,0,1.06,0A2,2,0,0,1,261.29,68.18Zm0,10.06a5.91,5.91,0,0,0,.1-.76c0-1.32.08-2.64.1-4,0-.38,0-.75-.06-1.13s0-.88,0-1.32l0-2.11a1.44,1.44,0,0,0-.12-.3c-.7.56-.7.56-1.71.56-.33,0-.66,0-1,0-.81,0-.93.11-.94.92q0,3.31,0,6.63c0,.6.14.73.75.75s1,0,1.46,0A1.24,1.24,0,0,1,261,78C261,78.05,261.11,78.08,261.32,78.24Z"/><path class="cls-1" d="M251.63,73.72a1.45,1.45,0,0,0,.48-1c.17-.82.33-1.64.49-2.46.2-1,.39-2,.59-2.92s.43-2,.67-3c.09-.41.44-.6.93-.54s.55.23.59.66a1.93,1.93,0,0,1,0,.34c-.16.79-.33,1.59-.5,2.39-.05.23-.1.47-.14.71s-.07.43-.11.65l-.6,2.91c-.15.69-.31,1.38-.45,2.07-.3,1.49-.58,3-.88,4.47a2.73,2.73,0,0,1-.29.8.84.84,0,0,1-.94.34c-.33-.05-.46-.3-.53-.61-.37-1.83-.73-3.67-1.11-5.51-.16-.78-.36-1.55-.52-2.32s-.33-1.69-.5-2.53-.26-1.44-.45-2.14-.3-.68-.95-.66-1.28,0-1.93,0-.76.14-.75.79c0,.22,0,.44,0,.66,0,.51.13.68.65.71s1,0,1.46,0h.4c.64,0,.86.23.85.82s-.23.8-.88.82-1.11,0-1.66,0-.78.12-.78.78c0,1.84,0,3.68,0,5.51,0,.44,0,.89,0,1.33s.12.64.61.67,1,0,1.53,0a2.32,2.32,0,0,1,.65.07.8.8,0,0,1,.55,1c-.05.4-.25.59-.73.6-1.15,0-2.31,0-3.46,0a.84.84,0,0,1-.89-.88,4.79,4.79,0,0,1,0-.66V65.28c0-1.3.15-1.44,1.46-1.45l4.24,0a.92.92,0,0,1,1,.82c.24,1.28.48,2.56.73,3.83.21,1.06.44,2.12.66,3.17.12.59.22,1.17.35,1.75A1.24,1.24,0,0,0,251.63,73.72Z"/><path class="cls-1" d="M189.43,71.59s0,0,0-.07c-.39-3.42,2.82-6.52,5.29-7.33a8.55,8.55,0,0,1,3.85-.27,6.75,6.75,0,0,1,2.15.83,7.65,7.65,0,0,1,3,3.09,7.43,7.43,0,0,1,.84,5.14,7.69,7.69,0,0,1-5.51,6,8.33,8.33,0,0,1-3,.19,7.55,7.55,0,0,1-6.52-5.7,9.44,9.44,0,0,1-.1-1.85Zm7.63-6.19a4.21,4.21,0,0,0-2.21.4A6.78,6.78,0,0,0,191.47,69,4.61,4.61,0,0,0,191,70.4a14.21,14.21,0,0,0,0,1.85,4.59,4.59,0,0,0,1.25,3.06,6.24,6.24,0,0,0,6,2.13,6,6,0,0,0,3.42-2,5.73,5.73,0,0,0,1.43-3.16,6.61,6.61,0,0,0-.31-2.74A5.88,5.88,0,0,0,197.06,65.4Z"/><path class="cls-1" d="M205.26,71.45v-6.1c0-.2,0-.4,0-.6,0-.74.18-.9.9-.91,1.07,0,2.13,0,3.19,0a7.5,7.5,0,0,1,7.12,4.82,10.87,10.87,0,0,1,.64,2.63,2,2,0,0,1,0,.59,8,8,0,0,1-2.88,5.63,7.1,7.1,0,0,1-4.31,1.66c-1.22,0-2.44,0-3.65,0-.83,0-1-.19-1-1q0-3.36,0-6.7Zm1.64,0h0c0,1.74,0,3.49,0,5.23,0,.74.09.84.84.85s1.46,0,2.19,0a4.38,4.38,0,0,0,2.22-.55,7.22,7.22,0,0,0,2.49-2.33,3.88,3.88,0,0,0,.73-2.57c0-.53,0-1.06,0-1.59a3.47,3.47,0,0,0-.16-.9,6.13,6.13,0,0,0-2-2.84,5,5,0,0,0-3.47-1.37c-.44,0-.88,0-1.33,0s-.62,0-.92,0-.53.16-.56.59c0,.2,0,.4,0,.6Z"/><path class="cls-1" d="M189,71.58a7.28,7.28,0,0,1-4.75,7.08,8.12,8.12,0,0,1-4.75.33A6.49,6.49,0,0,1,177,77.84a7.09,7.09,0,0,1-3-4.11,12.11,12.11,0,0,1-.21-2.83,6.9,6.9,0,0,1,2.64-5.13A7.89,7.89,0,0,1,179.8,64a8,8,0,0,1,1.77-.17,7,7,0,0,1,5,2,7.63,7.63,0,0,1,2.06,3.2A6.38,6.38,0,0,1,189,71.58Zm-13.68,0a5,5,0,0,0,1.16,3.56,6.16,6.16,0,0,0,10.65-1.57,6,6,0,0,0-.86-5.78,5.49,5.49,0,0,0-3.56-2.35,5.83,5.83,0,0,0-4.81,1.1C176.33,67.85,175.18,69.35,175.32,71.6Z"/><path class="cls-1" d="M226.28,73.43a5,5,0,0,1,.74-2.86,7.28,7.28,0,0,1,1.74-1.89c.4-.35.33-.32.27-.86a5.3,5.3,0,0,1,.08-1.95,3,3,0,0,1,1.47-1.65,2.94,2.94,0,0,1,3.86,1c.27.41.28.49,0,.8s-.74.55-1.09.32a5.27,5.27,0,0,1-.51-.43,1.45,1.45,0,0,0-2.16,1.8c.12.23.29.44.42.67a.91.91,0,0,1-.48,1.4,3.83,3.83,0,0,0-2.2,1.92,4.44,4.44,0,0,0-.46,1.7,3.88,3.88,0,0,0,2.91,4.1,4.05,4.05,0,0,0,5-4.65,3.69,3.69,0,0,0-1.13-2.13c-.55-.52-.38-1,.13-1.39a.52.52,0,0,1,.82,0,6.92,6.92,0,0,1,.88,1A3.91,3.91,0,0,0,238.77,72c.5.12.61.53.25.91a2,2,0,0,1-.84.46c-.57.18-.71.27-.72.86a5.68,5.68,0,0,1-4.4,4.87,6,6,0,0,1-1.23.22,6.65,6.65,0,0,1-1.87-.4,5.5,5.5,0,0,1-3.46-3.76A11.79,11.79,0,0,1,226.28,73.43Z"/><path class="cls-1" d="M168.86,71.45V65.34c0-.31,0-.62,0-.92a.56.56,0,0,1,.53-.57,14.87,14.87,0,0,1,3.77,0,.62.62,0,0,1,.63.65.74.74,0,0,1-.53.82,2.81,2.81,0,0,1-.65.07c-.53,0-1.07,0-1.6,0s-.62.17-.64.66c-.05,1.51,0,1.52,1.35,1.51.44,0,.89,0,1.33,0a.73.73,0,0,1,.73.78.76.76,0,0,1-.7.82c-.5,0-1,0-1.52,0-1.2,0-1.2,0-1.2,1.22v7.3a5,5,0,0,1,0,.67.76.76,0,0,1-.82.76c-.44,0-.66-.26-.67-.81,0-1.39,0-2.79,0-4.18Z"/><path class="cls-1" d="M220.27,74.39a5.72,5.72,0,0,0-.73-2.29c-.68-.9-1.35-1.81-2-2.7a7.28,7.28,0,0,1-1.14-2.3,2.79,2.79,0,0,1,2.15-3.23l.39,0c.31,0,.71-.11.83.22a2.12,2.12,0,0,1,0,1c0,.12-.25.22-.4.29s-.31,0-.46.09a1.08,1.08,0,0,0-.79,1.38,6.41,6.41,0,0,0,.81,1.5c.48.71,1.1,1.34,1.53,2.07a9.68,9.68,0,0,1,1.3,2.74,4.65,4.65,0,0,1-2.9,5.59,8,8,0,0,1-1.86.43c-.32,0-.69,0-.81-.31a2.33,2.33,0,0,1,0-1c0-.11.25-.22.4-.28a1.24,1.24,0,0,1,.39,0,3.6,3.6,0,0,0,2.91-1.72A5.7,5.7,0,0,0,220.27,74.39Z"/><path class="cls-1" d="M278.05,74.29A4.77,4.77,0,0,1,274.39,79a5.62,5.62,0,0,1-1.24.17.84.84,0,0,1-1-.79c0-.46.26-.78.81-.83a3.67,3.67,0,0,0,3.09-1.88,3.17,3.17,0,0,0-.21-3.28A31.06,31.06,0,0,0,274,69.8a7.7,7.7,0,0,1-1.38-2.55,2.8,2.8,0,0,1,.8-2.75,2.9,2.9,0,0,1,1.75-.71.9.9,0,0,1,.93.51.72.72,0,0,1-.37,1,1.17,1.17,0,0,1-.32.09,1.31,1.31,0,0,0-.93,2.16c.28.44.6.88.91,1.3s.87,1.12,1.28,1.69A6.67,6.67,0,0,1,278,74C278,74.12,278,74.23,278.05,74.29Z"/><path class="cls-1" d="M190.36,36.17a3.37,3.37,0,0,1-3.2-2.44,1.28,1.28,0,0,1,0-.58c.39-1.79,1.53-3.21,3.65-3a2.76,2.76,0,0,1,2.6,2.35,5.24,5.24,0,0,1,.08,1.11A2.86,2.86,0,0,1,190.36,36.17Z"/><path class="cls-1" d="M139.18,36.15a3.07,3.07,0,0,1-3-2.3,2.92,2.92,0,0,1,1.07-3,3,3,0,0,1,3.23-.51,3.24,3.24,0,0,1,1.46,4.49,1.1,1.1,0,0,1-.34.4A3.71,3.71,0,0,1,139.18,36.15Z"/><path class="cls-1" d="M76.52,33.38a3,3,0,0,1,0,.79,2.28,2.28,0,0,1-.47,1,3.25,3.25,0,0,1-3.11.91,3.17,3.17,0,0,1-2.48-2.32,1.61,1.61,0,0,1,0-.65,3.53,3.53,0,0,1,2-2.7,2.92,2.92,0,0,1,4.14,2.52v.46Z"/></g></g></svg>