<svg xmlns="http://www.w3.org/2000/svg" viewBox="0 0 142.88 55.93"><defs><style>.a{fill:#11ad9e;}.a,.b{fill-rule:evenodd;}.b{fill:#fffffe;}</style></defs><title>tfc-logo-white</title><polygon class="a" points="0 34.39 77.24 34.39 77.24 55.55 82.53 55.55 82.53 7.92 0 7.92 0 34.39"/><polyline class="b" points="6 12.2 20.47 12.2 20.47 16.57 11.01 16.57 11.01 19.63 19.15 19.63 19.15 23.77 11.01 23.77 11.01 30.19 6 30.19 6 12.2"/><path class="b" d="M34.82,21.25V21.2a4.65,4.65,0,0,0-4.63-4.86,4.6,4.6,0,0,0-4.6,4.8v.06a4.69,4.69,0,0,0,4.65,4.85A4.6,4.6,0,0,0,34.82,21.25Zm-14.35,0V21.2a9.46,9.46,0,0,1,9.77-9.36A9.36,9.36,0,0,1,40,21.14v.06a9.45,9.45,0,0,1-9.77,9.35,9.37,9.37,0,0,1-9.72-9.3Z"/><path class="b" d="M53.28,21.25V21.2a4.65,4.65,0,0,0-4.63-4.86,4.6,4.6,0,0,0-4.6,4.8v.06a4.69,4.69,0,0,0,4.65,4.85A4.6,4.6,0,0,0,53.28,21.25Zm-14.35,0V21.2a9.46,9.46,0,0,1,9.77-9.36,9.36,9.36,0,0,1,9.72,9.3v.06a9.45,9.45,0,0,1-9.77,9.35,9.37,9.37,0,0,1-9.72-9.3Z"/><path class="b" d="M64.74,16.6v9.17h2c3,0,5-1.65,5-4.55v0c0-2.88-2-4.57-5-4.57Zm-5-4.4h7c6.43,0,10.18,3.7,10.18,8.89v.05c0,5.19-3.8,9.05-10.29,9.05h-6.9v-18Z"/><path class="b" d="M0,46.12v-.06A9.75,9.75,0,0,1,10,36.2a9.42,9.42,0,0,1,8.1,3.93l-4,3.06A5.19,5.19,0,0,0,10,41c-2.67,0-4.55,2.28-4.55,5v.05c0,2.85,1.88,5.07,4.55,5.07a5.23,5.23,0,0,0,4.31-2.3l4,2.82a9.65,9.65,0,0,1-8.43,4.28A9.66,9.66,0,0,1,0,46.12"/><path class="b" d="M33.41,46.12v-.06a4.91,4.91,0,0,0-4.88-5.12A4.86,4.86,0,0,0,23.67,46v.05a5,5,0,0,0,4.91,5.13A4.85,4.85,0,0,0,33.41,46.12Zm-15.13,0v-.06a10,10,0,0,1,10.3-9.86A9.88,9.88,0,0,1,38.83,46v.05a10,10,0,0,1-10.3,9.87,9.88,9.88,0,0,1-10.25-9.81Z"/><path class="b" d="M49,45.69c1.77,0,2.83-.87,2.83-2.25v-.06c0-1.52-1.11-2.27-2.86-2.27H45.51v4.58Zm-8.81-9.11h9c2.91,0,4.93.76,6.21,2A5.9,5.9,0,0,1,57.15,43v0a6,6,0,0,1-3.92,5.86l4.55,6.61H51.7L47.86,49.8H45.51v5.75H40.22v-19Z"/><path class="b" d="M67,45.69c1.77,0,2.83-.87,2.83-2.25v-.06c0-1.52-1.12-2.27-2.86-2.27H63.51v4.58Zm-8.81-9.11h9c2.92,0,4.94.76,6.22,2A5.9,5.9,0,0,1,75.15,43v0a6,6,0,0,1-3.93,5.86l4.56,6.61H69.7L65.85,49.8H63.51v5.75H58.22v-19Z"/><path class="b" d="M90.27,41.21v9.68h2.16c3.19,0,5.28-1.74,5.28-4.8V46c0-3-2.09-4.83-5.28-4.83ZM85,36.58h7.39c6.79,0,10.74,3.9,10.74,9.38v0c0,5.47-4,9.54-10.85,9.54H85v-19Z"/><path class="b" d="M119.12,46.12v-.06a4.9,4.9,0,0,0-4.88-5.12A4.85,4.85,0,0,0,109.39,46v.05a5,5,0,0,0,4.91,5.13A4.84,4.84,0,0,0,119.12,46.12Zm-15.13,0v-.06A10.29,10.29,0,0,1,124.55,46v.05a10.29,10.29,0,0,1-20.56.06Z"/><path class="b" d="M134.13,45.69c1.78,0,2.84-.87,2.84-2.25v-.06c0-1.52-1.12-2.27-2.86-2.27h-3.49v4.58Zm-8.8-9.11h9c2.92,0,4.94.76,6.22,2A5.9,5.9,0,0,1,142.26,43v0a6,6,0,0,1-3.93,5.86l4.55,6.61h-6.07L133,49.8h-2.34v5.75h-5.29v-19Z"/><polyline class="b" points="7.49 1.82 5.58 1.82 5.58 0 11.57 0 11.57 1.82 9.66 1.82 9.66 6.45 7.49 6.45 7.49 1.82"/><polyline class="b" points="12.43 0 14.6 0 14.6 2.27 16.58 2.27 16.58 0 18.75 0 18.75 6.45 16.58 6.45 16.58 4.14 14.6 4.14 14.6 6.45 12.43 6.45 12.43 0"/><polyline class="b" points="19.67 0 25.21 0 25.21 1.77 21.8 1.77 21.8 2.42 23.87 2.42 23.87 3.98 21.8 3.98 21.8 4.68 25.25 4.68 25.25 6.45 19.67 6.45 19.67 0"/></svg>