<svg xmlns="http://www.w3.org/2000/svg" viewBox="0 0 127 63.92"><defs><style>.a{fill:#5ea6e0;}.a,.b{fill-rule:evenodd;}.b{fill:#fff;}</style></defs><title>tkd-white_1</title><polygon class="a" points="0 9.41 127 9.41 127 63.92 116.73 63.92 116.73 41.41 0 41.41 0 9.41"/><path class="b" d="M8.44,33.69V16.79h4.71v6.85L19,16.79h5.56L18.15,24l6.65,9.66H19.17l-4.3-6.28L13.15,29.3v4.39Zm17.84,0V16.79H31v16.9Zm12,0V20.89H33.17v-4.1H48v4.1H43v12.8ZM58.31,34a8.6,8.6,0,0,1-8.76-8.74,8.69,8.69,0,0,1,8.93-8.84,8.36,8.36,0,0,1,7.2,3.5l-3.54,2.73a4.6,4.6,0,0,0-3.71-2,4.21,4.21,0,0,0-4,4.49c0,2.58,1.67,4.56,4,4.56a4.64,4.64,0,0,0,3.83-2.05l3.55,2.51A8.58,8.58,0,0,1,58.31,34Zm9.53-.34V16.79h4.71v6.32h6V16.79H83.3v16.9H78.59V27.27h-6v6.42Zm18.47,0V16.79H100v4H91v2.58h8.15V27H91v2.68h9.12v4Zm16.21,0V16.79h4.39l7,8.93V16.79h4.66v16.9h-4.1l-7.28-9.27v9.27Z"/><polyline class="b" points="7.88 2.02 5.78 2.02 5.78 0 12.37 0 12.37 2.02 10.27 2.02 10.27 7.13 7.88 7.13 7.88 2.02"/><polyline class="b" points="13.31 0 15.7 0 15.7 2.52 17.88 2.52 17.88 0 20.27 0 20.27 7.13 17.88 7.13 17.88 4.57 15.7 4.57 15.7 7.13 13.31 7.13 13.31 0"/><polyline class="b" points="21.28 0 27.37 0 27.37 1.96 23.63 1.96 23.63 2.68 25.9 2.68 25.9 4.4 23.63 4.4 23.63 5.17 27.42 5.17 27.42 7.13 21.28 7.13 21.28 0"/><path class="b" d="M27.79,63.19V44.25h7.45c6.84,0,10.83,3.9,10.83,9.36v.06c0,5.46-4,9.52-10.94,9.52ZM35.3,48.88H33.12v9.66H35.3c3.21,0,5.33-1.73,5.33-4.79v-.06C40.63,50.67,38.51,48.88,35.3,48.88ZM58.55,63.57c-5.94,0-10.34-4.36-10.34-9.79v-.06c0-5.44,4.46-9.84,10.39-9.84s10.34,4.35,10.34,9.79v0C68.94,59.16,64.49,63.57,58.55,63.57Zm.05-4.74a4.85,4.85,0,0,0,4.87-5v-.06a4.92,4.92,0,0,0-4.92-5.11,4.87,4.87,0,0,0-4.89,5.06v0A5,5,0,0,0,58.6,58.83Zm20.67,4.74c-5.93,0-10.33-4.36-10.33-9.79v-.06c0-5.44,4.45-9.84,10.39-9.84s10.33,4.35,10.33,9.79v0C89.66,59.16,85.21,63.57,79.27,63.57Zm.06-4.74a4.85,4.85,0,0,0,4.86-5v-.06a4.91,4.91,0,1,0-9.81,0v0A5,5,0,0,0,79.33,58.83Zm13.08,4.36V44.25h9.1c2.94,0,5,.76,6.27,2a5.9,5.9,0,0,1,1.7,4.41v.06a6,6,0,0,1-4,5.84l4.59,6.6H104l-3.87-5.74H97.75v5.74Zm5.34-9.85h3.54c1.79,0,2.86-.86,2.86-2.24V51c0-1.51-1.13-2.27-2.89-2.27H97.75Z"/></svg>