<svg xmlns="http://www.w3.org/2000/svg" width="575.7" height="204.985" viewBox="0 0 575.7 204.985"><g transform="translate(-312.15 -39.619)"><path d="M390.084,55.663a10.64,10.64,0,0,1,.911-3.783,29.419,29.419,0,0,1,3.032-4.617,59.092,59.092,0,0,1,4.141-4.923q2.961.315,5.921.619a40.124,40.124,0,0,0-7.751,7.306.753.753,0,0,0-.129.709.614.614,0,0,0,.576.414,4.647,4.647,0,0,1,3.34,1.9,5.3,5.3,0,0,1,1.05,3.89,5.024,5.024,0,0,1-1.972,3.592,5.406,5.406,0,0,1-4.03,1.107,5.554,5.554,0,0,1-3.791-1.982A5.711,5.711,0,0,1,390.084,55.663Zm12.951,1.376a10.56,10.56,0,0,1,.883-3.789,41.647,41.647,0,0,1,2.85-4.934,33.831,33.831,0,0,1,3.625-4.721q2.874.285,5.748.56A36.8,36.8,0,0,0,409,51.572a.722.722,0,0,0-.106.711.643.643,0,0,0,.6.411,5.315,5.315,0,0,1,4.782,5.793,4.982,4.982,0,0,1-1.964,3.623,5.678,5.678,0,0,1-4.178,1.1,5.494,5.494,0,0,1-3.787-1.952A5.733,5.733,0,0,1,403.035,57.039Z" fill="#ff490d"/><path d="M419.591,44.483q5.037.472,10.073.915-.231,17.028-.408,34.058l.569.049q4.407-16.734,8.707-33.488,4.968.411,9.936.8,1.494,17.043,3.1,34.085l.569.042q2.613-16.661,5.179-33.327,4.709.339,9.419.653-4.932,25.47-10.042,50.916-5.946-.417-11.89-.875-1.335-16.35-2.57-32.7l-.6-.048Q437.612,81.487,433.5,97.4q-5.959-.5-11.915-1.033Q420.484,70.422,419.591,44.483Z" fill="#ff490d"/><path d="M468.11,99.948q1.626-25.69,3.267-51.38,11.9.762,23.8,1.36-.21,4.2-.422,8.4-6.506-.327-13.012-.7l-.7,12.216q6.037.348,12.077.655-.213,4.2-.424,8.4-6.069-.309-12.135-.659-.4,6.924-.792,13.848,6.882.4,13.767.741l-.423,8.542Q480.61,100.749,468.11,99.948Z" fill="#ff490d"/><path d="M511.406,87.808q5.989.24,11.981.44a13.473,13.473,0,0,0-.374,2.662,7.707,7.707,0,0,0,.365,2.962q.774,2.386,2.808,2.453a2.746,2.746,0,0,0,2.459-1.191,5.7,5.7,0,0,0,.952-3.252c.1-3.422-1.917-6.592-6.017-9.53-7.494-5.113-11.063-10.929-10.808-17.376q.275-6.868,4.491-10.773a13.614,13.614,0,0,1,10.086-3.717,13.107,13.107,0,0,1,9.351,4.062q3.775,3.886,4.243,10.981-5.629-.135-11.259-.306a13.914,13.914,0,0,0,.155-1.662,9.773,9.773,0,0,0-.425-3.31q-.668-2.035-2.24-2.084a2.476,2.476,0,0,0-2.208,1.352,7.055,7.055,0,0,0-.957,3.579q-.147,4.3,5.844,8.24a35.405,35.405,0,0,1,4.477,3.392,27.568,27.568,0,0,1,3.579,3.949,16,16,0,0,1,2.465,4.868,17.888,17.888,0,0,1,.761,5.728q-.147,6.771-4.382,10.748a14.368,14.368,0,0,1-10.727,3.774,16.416,16.416,0,0,1-3.891-.6,14.857,14.857,0,0,1-3.875-1.751,13.34,13.34,0,0,1-5.827-7.5A20.42,20.42,0,0,1,511.406,87.808Z" fill="#ff490d"/><path d="M545.742,103.237q.519-25.735,1.052-51.473,11.91.249,23.819.334-.031,4.206-.06,8.412-6.51-.046-13.02-.142-.087,6.117-.175,12.235,6.044.089,12.084.135-.031,4.208-.062,8.413-6.074-.046-12.142-.136-.1,6.935-.2,13.869,6.888.1,13.776.148-.028,4.275-.055,8.552Q558.253,103.5,545.742,103.237Z" fill="#ff490d"/><path d="M575.546,103.611q.093-25.743.2-51.484,7.291.031,14.582,0a19.751,19.751,0,0,1,4.7.549,17.567,17.567,0,0,1,4.448,1.741,16.8,16.8,0,0,1,3.751,2.819,12.588,12.588,0,0,1,2.624,3.957,13.02,13.02,0,0,1,1.032,5c.082,6.018-2.907,10.524-9.01,13.471q5.688,11.9,11.529,23.768-6.25.092-12.5.138-4.759-10.992-9.4-22.01h-.6q.06,11.029.127,22.058Q581.279,103.634,575.546,103.611ZM586.87,75.175l2.619-.077a5.352,5.352,0,0,0,4.231-2.138,8.445,8.445,0,0,0,1.586-5.429,7.925,7.925,0,0,0-1.723-5.2,5.339,5.339,0,0,0-4.081-2.1l-2.667-.062Q586.855,67.671,586.87,75.175Z" fill="#ff490d"/><path d="M607.316,51.977q5.742-.078,11.485-.195,3.495,18.583,7.133,37.152l.463-.011q2.544-18.717,4.97-37.442,5.288-.146,10.573-.323-4.491,25.908-9.283,51.791-6.678.185-13.359.317Q613.141,77.641,607.316,51.977Z" fill="#ff490d"/><path d="M647.205,102.491q-.929-25.725-1.844-51.451,11.9-.422,23.788-1.006.209,4.2.414,8.4-6.5.319-13,.592l.513,12.225q6.035-.252,12.068-.546.207,4.2.411,8.4-6.062.294-12.126.548.291,6.929.586,13.857,6.879-.287,13.756-.627.213,4.271.427,8.542Q659.705,102.048,647.205,102.491Z" fill="#ff490d"/><path d="M685.675,49.144q5.856-.344,11.71-.726,3.858,12.1,7.808,24.178l.458-.031q2.353-12.516,4.62-25.037,5.238-.381,10.478-.794-4.181,16.038-8.552,32.058a1.368,1.368,0,0,0-1.27,1.66q.669,9.276,1.341,18.55-5.684.408-11.366.78-.61-9.279-1.223-18.558a1.572,1.572,0,0,0-.463-1.068,1.469,1.469,0,0,0-1.094-.4Q691.8,64.473,685.675,49.144Z" fill="#ff490d"/><path d="M721.516,72.6a41.6,41.6,0,0,1,.555-11.381,25.852,25.852,0,0,1,3.3-8.79,18.269,18.269,0,0,1,5.546-5.721,15.756,15.756,0,0,1,7.285-2.485,15.5,15.5,0,0,1,9.881,2.382,21.955,21.955,0,0,1,7.619,8.8A38.874,38.874,0,0,1,759.592,69.5a40.052,40.052,0,0,1,.011,8.14,29.59,29.59,0,0,1-1.714,7.438,24.122,24.122,0,0,1-3.35,6.162,16.287,16.287,0,0,1-11.648,6.388,15.876,15.876,0,0,1-10.656-2.705A21.7,21.7,0,0,1,724.8,85.88,38.354,38.354,0,0,1,721.516,72.6Zm11.625-.877q1.594,18.894,9.138,18.241,7.464-.666,5.693-19.489Q746.138,51,738.86,51.67,731.5,52.321,733.141,71.724Z" fill="#ff490d"/><path d="M765.538,76q-1.7-16.51-3.4-33.024,5.507-.565,11.009-1.166,1.884,17.265,3.779,34.53.543,5.008,1.877,7.115a3.473,3.473,0,0,0,3.467,1.87A3.4,3.4,0,0,0,785.2,82.76q.8-2.327.219-7.366-1.976-17.254-3.944-34.511,5.4-.615,10.789-1.264,1.984,16.48,3.974,32.96c.767,6.373-.033,11.327-2.435,14.854a14.133,14.133,0,0,1-10.69,6.09,14.342,14.342,0,0,1-11.829-3.6Q766.51,85.552,765.538,76Z" fill="#ff490d"/><path d="M804.225,97.7a34.184,34.184,0,0,0,5.6-8.372.63.63,0,0,0-.05-.677.669.669,0,0,0-.683-.247,5.29,5.29,0,0,1-4.009-1.054,5.025,5.025,0,0,1-2.028-3.518,4.968,4.968,0,0,1,1.148-3.977,6.22,6.22,0,0,1,8.033-1.033,5.378,5.378,0,0,1,2.241,3.631,9.489,9.489,0,0,1-.025,3.691,42.45,42.45,0,0,1-1.714,5.388,32.343,32.343,0,0,1-2.559,5.425Q807.2,97.332,804.225,97.7Z" fill="#ff490d"/><path d="M312.15,117.469q6.111.912,12.228,1.782,1.473,12.657,3.033,25.315l.478.067q5.026-11.746,9.966-23.516,5.482.74,10.968,1.445-7.65,14.807-15.482,29.552a1.4,1.4,0,0,0-1.654,1.354q-1.239,9.218-2.474,18.434-5.936-.805-11.868-1.649,1.293-9.209,2.59-18.417a1.529,1.529,0,0,0-.255-1.143,1.586,1.586,0,0,0-1.044-.623Q315.3,133.772,312.15,117.469Z" fill="#ff490d"/><path d="M344.227,148.03a39.646,39.646,0,0,1,2.942-11.017,25.389,25.389,0,0,1,5.226-7.9,18.941,18.941,0,0,1,6.907-4.423,17.254,17.254,0,0,1,8.024-.892,16.878,16.878,0,0,1,9.683,4.415,22.01,22.01,0,0,1,6.006,10.215,37.25,37.25,0,0,1,1.064,14.6,38.6,38.6,0,0,1-1.69,7.965,28.761,28.761,0,0,1-3.319,6.918,24.172,24.172,0,0,1-4.733,5.322,17.167,17.167,0,0,1-6.1,3.221,17.787,17.787,0,0,1-7.222.574,17.24,17.24,0,0,1-10.4-4.9,21.8,21.8,0,0,1-5.775-10.416A36.611,36.611,0,0,1,344.227,148.03Zm12.156,1.6q-2.295,18.82,5.6,19.774,7.822.923,9.928-17.865,2.176-19.436-5.459-20.322Q358.739,130.305,356.383,149.633Z" fill="#ff490d"/><path d="M388.835,160.646q1.7-16.512,3.41-33.024,5.789.606,11.579,1.174-1.68,17.287-3.35,34.574-.488,5.015.44,7.354a3.651,3.651,0,0,0,3.172,2.558,3.563,3.563,0,0,0,3.553-1.9q1.309-2.109,1.771-7.16,1.588-17.295,3.183-34.59,5.684.53,11.367,1.024-1.422,16.539-2.838,33.078-.816,9.594-5.621,14.022c-3.2,2.948-7.3,4.193-12.261,3.719-4.932-.473-8.753-2.48-11.408-6S388.18,167.008,388.835,160.646Z" fill="#ff490d"/><path d="M441.609,169.326q6.268.474,12.539.907a12.666,12.666,0,0,0-.48,2.646,7.553,7.553,0,0,0,.284,2.975,3.136,3.136,0,0,0,2.863,2.56,2.918,2.918,0,0,0,2.617-1.1,5.538,5.538,0,0,0,1.1-3.214q.323-5.125-5.992-9.758c-7.682-5.4-11.236-11.356-10.758-17.79q.509-6.855,5.06-10.593a14.652,14.652,0,0,1,10.7-3.322,14.152,14.152,0,0,1,9.673,4.421c2.545,2.687,3.917,6.4,4.082,11.14q-5.9-.353-11.793-.741a12.513,12.513,0,0,0,.217-1.655,9.358,9.358,0,0,0-.336-3.324c-.427-1.374-1.184-2.1-2.281-2.17a2.6,2.6,0,0,0-2.36,1.265,6.721,6.721,0,0,0-1.122,3.54q-.3,4.293,5.855,8.464a36.87,36.87,0,0,1,4.583,3.563,27.953,27.953,0,0,1,3.618,4.084,15.753,15.753,0,0,1,2.422,4.96,17.142,17.142,0,0,1,.605,5.755,14.132,14.132,0,0,1-4.95,10.574,15.446,15.446,0,0,1-11.362,3.359,17.968,17.968,0,0,1-4.055-.746,16.067,16.067,0,0,1-4-1.9,14.735,14.735,0,0,1-3.479-3.108,14.036,14.036,0,0,1-2.377-4.616A19.433,19.433,0,0,1,441.609,169.326Z" fill="#ff490d"/><path d="M477.07,186.075q1.405-25.7,2.828-51.407,12.481.7,24.97,1.237-.177,4.2-.35,8.4-6.822-.291-13.646-.633-.3,6.111-.6,12.221,6.331.318,12.662.592-.177,4.2-.352,8.406-6.36-.276-12.719-.594-.339,6.927-.676,13.853,7.214.361,14.426.667-.176,4.272-.349,8.545Q490.164,186.812,477.07,186.075Z" fill="#ff490d"/><path d="M508.273,187.573q.982-25.724,1.979-51.446,7.644.3,15.29.544a21.574,21.574,0,0,1,4.906.723,19,19,0,0,1,4.6,1.9,17.537,17.537,0,0,1,3.835,2.954,12.675,12.675,0,0,1,3.517,9.089c-.125,6.017-3.413,10.412-9.916,13.133q5.547,12.1,11.245,24.175-6.549-.136-13.1-.32-4.6-11.16-9.086-22.344l-.632-.021q-.318,11.025-.63,22.049Q514.278,187.811,508.273,187.573Zm12.846-28,2.745.02a5.685,5.685,0,0,0,4.51-1.981,8.157,8.157,0,0,0,1.852-5.367,7.7,7.7,0,0,0-1.625-5.26,5.7,5.7,0,0,0-4.206-2.249q-1.4-.078-2.793-.16Q521.362,152.076,521.119,159.575Z" fill="#ff490d"/><path d="M543.362,137.144q6.026.131,12.05.222,3,18.7,6.152,37.386l.486.006q3.332-18.613,6.547-37.24,5.549.045,11.1.055Q574.051,163.305,568.1,189q-7-.057-14-.165Q548.565,163.006,543.362,137.144Z" fill="#ff490d"/><path d="M583.354,189.061q-.04-25.742-.067-51.484,12.488,0,24.976-.171.062,4.206.124,8.412-6.825.093-13.649.136.042,6.119.089,12.236,6.333-.041,12.666-.123.06,4.206.121,8.412-6.363.084-12.723.124.053,6.935.1,13.87,7.215-.045,14.429-.146l.132,8.551Q596.457,189.061,583.354,189.061Z" fill="#ff490d"/><path d="M628.175,162.881a39.866,39.866,0,0,1,1.227-11.336,25.3,25.3,0,0,1,3.947-8.6,18.877,18.877,0,0,1,6.131-5.422,17.164,17.164,0,0,1,7.769-2.1,16.784,16.784,0,0,1,10.209,2.892,22,22,0,0,1,7.467,9.184,37.392,37.392,0,0,1,3.265,14.271,38.149,38.149,0,0,1-.457,8.129,28.662,28.662,0,0,1-2.221,7.341,24.1,24.1,0,0,1-3.857,5.981,17.1,17.1,0,0,1-5.518,4.11,17.657,17.657,0,0,1-7.026,1.665,17.147,17.147,0,0,1-10.99-3.259,21.778,21.778,0,0,1-7.265-9.416A36.846,36.846,0,0,1,628.175,162.881Zm12.213-.265q.591,18.951,8.519,18.694,7.842-.277,7.071-19.168-.794-19.54-8.461-19.255Q639.777,143.154,640.388,162.616Z" fill="#ff490d"/><path d="M667.847,144.187q-.2-4.271-.4-8.542,15.381-.707,30.748-1.671.273,4.268.545,8.535-4.809.3-9.621.578,1.256,21.43,2.52,42.859-6.031.347-12.065.655-1.128-21.437-2.246-42.874Q672.587,143.97,667.847,144.187Z" fill="#ff490d"/><path d="M705.73,185.082q-1.71-25.685-3.406-51.371,5.682-.369,11.362-.774.74,10.229,1.48,20.457,5.319-.378,10.635-.788-.8-10.224-1.6-20.449,5.859-.45,11.718-.94,2.166,25.651,4.347,51.3-6.023.5-12.045.966-.885-11.245-1.765-22.492-5.34.411-10.684.792.816,11.251,1.636,22.5Q711.571,184.7,705.73,185.082Z" fill="#ff490d"/><path d="M748,181.857q-2.286-25.639-4.558-51.282,12.439-1.09,24.869-2.349.43,4.185.857,8.369-6.79.688-13.587,1.326.578,6.091,1.156,12.181,6.306-.591,12.609-1.226.426,4.185.855,8.37-6.333.638-12.666,1.232.657,6.9,1.315,13.807,7.184-.674,14.363-1.4.438,4.254.878,8.507Q761.05,180.714,748,181.857Z" fill="#ff490d"/><path d="M779.071,178.875q-2.712-25.6-5.407-51.2,7.606-.793,15.207-1.65a21.627,21.627,0,0,1,4.957.013,19.048,19.048,0,0,1,4.828,1.225,17.513,17.513,0,0,1,4.218,2.376,12.676,12.676,0,0,1,4.784,8.491c.742,5.973-1.889,10.794-7.934,14.417q7.221,11.186,14.591,22.317-6.5.8-13.012,1.559-6.153-10.388-12.191-20.814c-.21.024-.419.047-.629.069q1.266,10.956,2.533,21.912Q785.047,178.252,779.071,178.875Zm8.7-29.548q1.361-.185,2.721-.373a5.684,5.684,0,0,0,4.179-2.607,8.2,8.2,0,0,0,1.063-5.576,7.723,7.723,0,0,0-2.36-4.973,5.691,5.691,0,0,0-4.484-1.623l-2.787.24Q786.936,141.872,787.772,149.327Z" fill="#ff490d"/><path d="M813.508,160.476q6.233-.771,12.46-1.586a13.129,13.129,0,0,0,.052,2.688,7.56,7.56,0,0,0,.867,2.861,3.133,3.133,0,0,0,3.31,1.944,2.914,2.914,0,0,0,2.348-1.591,5.54,5.54,0,0,0,.447-3.367c-.466-3.394-3.065-6.179-7.8-8.383-8.6-3.779-13.252-8.914-14.051-15.316q-.855-6.82,2.864-11.383a14.617,14.617,0,0,1,9.825-5.369,14.127,14.127,0,0,1,10.351,2.423q4.545,3.2,6.2,10.113-5.85.821-11.7,1.605a12.129,12.129,0,0,0-.113-1.666,9.182,9.182,0,0,0-.987-3.194,2.487,2.487,0,0,0-4.725.03,6.746,6.746,0,0,0-.4,3.692q.561,4.266,7.408,7.141a36.807,36.807,0,0,1,5.194,2.588,28.091,28.091,0,0,1,4.353,3.288,15.916,15.916,0,0,1,3.353,4.385,17.17,17.17,0,0,1,1.729,5.521,14.141,14.141,0,0,1-2.761,11.345,15.433,15.433,0,0,1-10.469,5.536,18.01,18.01,0,0,1-4.12.069,15.984,15.984,0,0,1-4.3-1.073,14.77,14.77,0,0,1-4.021-2.36,14.146,14.146,0,0,1-3.24-4.057A19.631,19.631,0,0,1,813.508,160.476Z" fill="#ff490d"/><path d="M844.175,118.939q5.607-.8,11.21-1.645,1.781,18.058,3.532,36.12-3.865.574-7.732,1.134Q847.66,136.747,844.175,118.939Zm6.331,45.781a4.911,4.911,0,0,1,1.122-4.022,6.168,6.168,0,0,1,4.011-2.112,6.357,6.357,0,0,1,4.508.878,4.862,4.862,0,0,1,2.3,3.5,4.75,4.75,0,0,1-1.169,3.973,6.4,6.4,0,0,1-4.08,2.133,6.2,6.2,0,0,1-4.47-.878A4.836,4.836,0,0,1,850.506,164.72Z" fill="#ff490d"/><path d="M864.136,135.412a33.924,33.924,0,0,0,5.469-8.588.672.672,0,0,0-.052-.678.679.679,0,0,0-.682-.193,5.511,5.511,0,0,1-4.145-.93,4.982,4.982,0,0,1-2.188-3.452,4.9,4.9,0,0,1,1.066-4,6.515,6.515,0,0,1,8.2-1.3,5.278,5.278,0,0,1,2.4,3.543,9.21,9.21,0,0,1,.042,3.717,44.359,44.359,0,0,1-1.588,5.437,31.485,31.485,0,0,1-2.451,5.508Q867.176,134.946,864.136,135.412Zm12.655-1.983a39.072,39.072,0,0,0,6.06-8.733.612.612,0,0,0-.074-.674.727.727,0,0,0-.7-.185,4.964,4.964,0,0,1-3.889-.926,5.165,5.165,0,0,1-2.095-3.472,4.911,4.911,0,0,1,1.044-3.994,5.8,5.8,0,0,1,3.755-2.157,6.01,6.01,0,0,1,4.3.8,5.3,5.3,0,0,1,2.418,3.525,9.25,9.25,0,0,1,.1,3.712,30.084,30.084,0,0,1-1.8,5.209,55.26,55.26,0,0,1-2.868,5.882Q879.915,132.928,876.791,133.429Z" fill="#ff490d"/><path d="M701,203.6c-28.283,1.948-56.647,3.9-84.6,8.813-20.223,3.556-40.964,9.565-55.8,23.885,2.017-5.413,3.377-11.229,2.664-16.514-1.092-8.1-8.848-6.711-14.875-5.2C529.531,219.331,513.512,231.178,499,243.6" fill="none" stroke="#ff490d" stroke-linecap="round" stroke-linejoin="round" stroke-width="2"/></g></svg>